<svg id="b2fc86e8-7414-4f4b-aefd-0ea0abac9d7c" data-name="Layer 1" xmlns="http://www.w3.org/2000/svg" width="303.7472" height="130.0404" viewBox="0 0 303.7472 130.0404"><path d="M118.1483,153.33H116.58q.0041-7.6775-2.5269-11.5147-2.5336-3.8428-6.38-3.8455a16.3722,16.3722,0,0,0-11.179,3.926q-2.1591,1.9737-4.1167,3.9314-7.4558,5.7117-12.2612,7.4759-4.8015,1.7563-13.4294,1.7616-22.1541-.016-37.235-13.9584Q11.2287,124.4138,11.2528,92.818q.02-30.6048,20.0246-50.608Q48.3362,25.1474,66.37,25.1635q12.1525.008,19.5949,3.5446,9.4014,4.5195,18.6041,17.0842l11.12-20.5966-.04,55.3342h-1.7643Q109.7795,54.525,97.2321,40.2444,85.47,26.9439,69.5758,26.93q-15.1131-.0079-23.8539,16.6384-8.7448,16.6518-8.765,47.015-.02,30.17,8.0561,46.4349,8.08,16.2651,22.3071,16.2786,13.2522.0079,20.6637-7.0732t7.4223-20.661l.0188-23.819q0-5.3171-.5854-6.6919a4.3407,4.3407,0,0,0-2.5484-2.17,34.6693,34.6693,0,0,0-7.9459-1.38q-5.99-.5963-10.301-.6015v-1.767l67.6948.0483v1.767a92.9244,92.9244,0,0,0-10.7924.7787q-6.477.79-8.7327,1.1762-2.26.3948-2.8465,1.3749-1.1762,1.9657-1.1815,7.4814Z" transform="translate(-11.2528 -25.1635)"/><path d="M204.1168,118.8551l-.0161,21.5149q-.004,5.736.7814,7.3095.3867.79,2.6478,1.6757a31.29,31.29,0,0,0,7.3551,1.4877,81.4561,81.4561,0,0,0,9.2215.6015v1.96l-66.5186-.0483.0027-1.96q7.2544.0079,13.2441-.58a35.2781,35.2781,0,0,0,8.2413-1.4769,5.3976,5.3976,0,0,0,2.9458-2.17q.6847-1.2808.6928-6.81l.0135-21.515L142.7,118.8121l58.1458-91.9837h3.3352L204.12,111.986l20.0139.0161-.0027,6.8691Zm-21.3834-6.88.0376-52.7831-33.0028,52.7563Z" transform="translate(-11.2528 -25.1635)"/><path d="M273.16,155.2039q-16.2893-.0081-28.44-17.4816-13.1354-18.843-13.1125-47.493.02-28.6471,12.9836-47.2835Q256.767,25.295,273.251,25.3085q16.4826.0081,28.6338,17.4816Q315.0161,61.6412,315,90.283q-.02,28.6554-12.6883,46.7948Q289.6436,155.22,273.16,155.2039Zm.0027-1.767q7.8426.0081,11.7833-15.86,3.9354-15.8624,3.9582-47.4071.02-30.3631-.5639-37.8149-1.9455-25.2719-15.0889-25.28-7.6533-.0079-11.59,15.763-3.9395,15.7737-3.9555,47.31-.0242,30.5644.5612,38.0083Q260.2083,153.4369,273.1623,153.4369Z" transform="translate(-11.2528 -25.1635)"/></svg>