<svg id="b05f2a4a-d71f-4301-b6ed-f38716275ade" data-name="Layer 1" xmlns="http://www.w3.org/2000/svg" width="331" height="293" viewBox="0 0 331 293"><defs><style>.afc82299-3a21-4d58-bd3d-75d82cf8800c{fill:#bda87f;}</style></defs><path class="afc82299-3a21-4d58-bd3d-75d82cf8800c" d="M129.2959,197.3278h-1.2624q.0033-6.18-2.0339-9.2685a6.0105,6.0105,0,0,0-5.1358-3.0953,13.1784,13.1784,0,0,0-8.9983,3.16q-1.7379,1.5887-3.3136,3.1645a41.1479,41.1479,0,0,1-9.8694,6.0176,32.6386,32.6386,0,0,1-10.81,1.4179q-17.8325-.0129-29.9714-11.2355-14.668-13.436-14.6486-38.8682.0162-24.6346,16.1184-40.7357Q73.102,94.1506,87.6177,94.1635,97.4,94.17,103.39,97.0167q7.5675,3.6378,14.9749,13.7515l8.9508-16.5788-.0324,44.54h-1.42q-3.3039-20.9321-13.4035-32.4269-9.4674-10.7059-22.2613-10.7168-12.165-.0065-19.2007,13.3927-7.0389,13.4036-7.0551,37.8437-.0163,24.2844,6.4845,37.3767,6.504,13.0923,17.9556,13.1031,10.667.0065,16.6328-5.6934t5.9744-16.6307l.0151-19.1725a18.0306,18.0306,0,0,0-.4712-5.3865,3.4942,3.4942,0,0,0-2.0513-1.7465,27.9109,27.9109,0,0,0-6.3959-1.111q-4.8212-.48-8.2915-.4842v-1.4222l54.4894.0389v1.4222a74.7764,74.7764,0,0,0-8.6871.6269q-5.2135.6354-7.0292.9467a3.2117,3.2117,0,0,0-2.2912,1.1067q-.9468,1.5822-.9511,6.0219Z"/><path class="afc82299-3a21-4d58-bd3d-75d82cf8800c" d="M198.4943,169.5784l-.013,17.318q-.0032,4.617.629,5.8836.3113.6354,2.1313,1.3488a25.1846,25.1846,0,0,0,5.92,1.1974,65.55,65.55,0,0,0,7.4226.4842v1.5779l-53.5426-.0389.0022-1.5779q5.8392.0065,10.6605-.4669a28.404,28.404,0,0,0,6.6337-1.1888,4.3442,4.3442,0,0,0,2.3711-1.7465q.5513-1.0311.5577-5.4816l.0108-17.318-32.2194-.0259,46.8031-74.04h2.6846l-.05,68.5457,16.11.0129-.0022,5.5292Zm-17.2121-5.5378.03-42.4865L154.7476,164.019Z"/><path class="afc82299-3a21-4d58-bd3d-75d82cf8800c" d="M254.0688,198.8365q-13.1118-.0065-22.8925-14.0714-10.573-15.1672-10.5547-38.2284.0162-23.0589,10.4509-38.06,9.8013-14.2077,23.07-14.1968,13.2673.0065,23.0482,14.0714,10.57,15.1737,10.5568,38.2284-.0162,23.0653-10.2131,37.6664Q267.3371,198.8495,254.0688,198.8365Zm.0021-1.4222q6.3127.0065,9.4847-12.7659,3.1677-12.768,3.1861-38.1592.0162-24.44-.454-30.4383-1.566-20.342-12.1455-20.3484-6.16-.0066-9.329,12.688-3.171,12.6968-3.1839,38.0814-.0195,24.6022.4518,30.5939Q243.6438,197.4143,254.0709,197.4143Z"/></svg>